# xmcd CD database file
#
# Track frame offsets:
#	150
#	18300
#	35509
#	53372
#	68609
#	84389
#	103214
#	120598
#	140625
#	160765
#	176805
#	190082
#	205609
#	217210
#	232597
#	247101
#	265771
#	283824
#
# Disc length: 4009 seconds
#
# Revision: 3
# Processed by: cddbd v1.5.2PL0 Copyright (c) Steve Scherf et al.
# Submitted via: CDex 1.51
#
DISCID=fa0fa712
DTITLE=Various Artist - VARIOUS RPM T1095
DYEAR=2011
DGENRE=Various
TTITLE0=TobyMac - Hold On
TTITLE1=Shawn Mullins - Light You Up
TTITLE2=Steve Azar - Sunshine
TTITLE3=Maroon 5 - Never Gonna Leave This Bed
TTITLE4=Tinie Tempah f Eric Turner - Written In The Stars
TTITLE5=Chris Brown - No BS
TTITLE6=Jared Lee - It's Over (Goodbye)
TTITLE7=LMFAO f Lauren Bennett and Goon Rock - Party Rock Anthem
TTITLE8=Decemberists - This Is Why We Fight
TTITLE9=Big Heed and Alien - Tipsy
TTITLE10=Deluka - OMFG
TTITLE11=Green Children - Dragons
TTITLE12=Far East Movement and Roger Sanchez f Kanobby - 2Gether
TTITLE13=Jacob Lyda - I'm Doing Alright
TTITLE14=D.J. Miller - Whatever It Takes
TTITLE15=Jeff Bates - One Day Closer
TTITLE16=David Bradley f Rodney Crowell - Hard Time Movin' On
TTITLE17=Chris August - Come Now Our King
EXTD=YEAR: 2011
EXTT0=
EXTT1=
EXTT2=
EXTT3=
EXTT4=
EXTT5=
EXTT6=
EXTT7=
EXTT8=
EXTT9=
EXTT10=
EXTT11=
EXTT12=
EXTT13=
EXTT14=
EXTT15=
EXTT16=
EXTT17=
PLAYORDER=
